# xmcd
#
# Track frame offsets:
# 150
# 20742
# 51142
# 64294
# 95044
# 95407
# 119264
# 120143
# 133127
# 159408
# 159909
# 177847
# 205699
# 208022
# 226702
# 247940
# 259015
# 277156
# 295235
# 311784
#
# Disc length: 4451 seconds
#
#
# Revision: 0
# Processed by: cddbd v1.5.2PL0 Copyright (c) Steve Scherf et al.
# Submitted via: FreeRIP 2.941 
#
DISCID=1b116114
DTITLE=1st audio cd-r - Started 1-21-01
DYEAR=2001
DGENRE=Black Metal
TTITLE0=I am the Walrus
TTITLE1=Celebrity Jepordy (turd ferguson - apetit)
TTITLE2=Vehicle
TTITLE3=Celebrity Jepordy (things trebek sucks - keaneu)
TTITLE4=now sports
TTITLE5=Body Count
TTITLE6=white girl
TTITLE7=KKK Bitch
TTITLE8=There Goes the Neighborhood
TTITLE9=oprah
TTITLE10=Evil Dick
TTITLE11=Mama's Gotta Die Tonight
TTITLE12=out in the parking lot
TTITLE13=Cop Killer
TTITLE14=Freedom of Speech
TTITLE15=It Don't Feel Like Sinnin' to Me
TTITLE16=Material Girl
TTITLE17=Borderline
TTITLE18=Like a Virgin
TTITLE19=Human Nature
EXTD=
EXTT0=
EXTT1=
EXTT2=
EXTT3=
EXTT4=
EXTT5=
EXTT6=
EXTT7=
EXTT8=
EXTT9=
EXTT10=
EXTT11=
EXTT12=
EXTT13=
EXTT14=
EXTT15=
EXTT16=
EXTT17=
EXTT18=
EXTT19=
PLAYORDER=
